HIERARCHY
ROOT Pelvis
{
	OFFSET 0.000000 0.941512 0.000000
	CHANNELS 6 Xposition Yposition Zposition Zrotation Yrotation Xrotation 
	JOINT Pelvis_L_Hip
	{
		OFFSET 0.000000 0.000000 0.000000
		CHANNELS 3 Zrotation Yrotation Xrotation
		JOINT L_Hip
		{
			OFFSET 0.062321 -0.080322 -0.016990
			CHANNELS 3 Zrotation Yrotation Xrotation
			JOINT L_Knee
			{
				OFFSET 0.093051 -0.381305 -0.029784
				CHANNELS 3 Zrotation Yrotation Xrotation
				JOINT L_Ankle
				{
					OFFSET -0.010371 -0.431000 -0.033614
					CHANNELS 3 Zrotation Yrotation Xrotation
					End Site #name: L_Foot
					{
						OFFSET 0.069299 -0.038670 0.119418
					}
				}
			}
		}
	}
	JOINT Pelvis_R_Hip
	{
		OFFSET 0.000000 0.000000 0.000000
		CHANNELS 3 Zrotation Yrotation Xrotation
		JOINT R_Hip
		{
			OFFSET -0.055334 -0.094904 -0.002373
			CHANNELS 3 Zrotation Yrotation Xrotation
			JOINT R_Knee
			{
				OFFSET -0.064207 -0.384370 -0.019592
				CHANNELS 3 Zrotation Yrotation Xrotation
				JOINT R_Ankle
				{
					OFFSET 0.025418 -0.419734 -0.065953
					CHANNELS 3 Zrotation Yrotation Xrotation
					End Site #name: R_Foot
					{
						OFFSET -0.057233 -0.039888 0.132134
					}
				}
			}
		}
	}
	JOINT Pelvis_Spine1
	{
		OFFSET 0.000000 0.000000 0.000000
		CHANNELS 3 Zrotation Yrotation Xrotation
		JOINT Spine1
		{
			OFFSET -0.005562 0.124093 -0.043360
			CHANNELS 3 Zrotation Yrotation Xrotation
			JOINT Spine2
			{
				OFFSET 0.012244 0.139499 0.029894
				CHANNELS 3 Zrotation Yrotation Xrotation
				JOINT Spine3
				{
					OFFSET -0.002556 0.056561 0.009225
					CHANNELS 3 Zrotation Yrotation Xrotation
					JOINT Spine3_Neck
					{
						OFFSET 0.000000 0.000000 0.000000
						CHANNELS 3 Zrotation Yrotation Xrotation
						JOINT Neck
						{
							OFFSET -0.005205 0.217920 -0.024551
							CHANNELS 3 Zrotation Yrotation Xrotation
							End Site #name: Head
							{
								OFFSET 0.002365 0.091850 0.046637
							}
						}
					}
					JOINT Spine3_L_Collar
					{
						OFFSET 0.000000 0.000000 0.000000
						CHANNELS 3 Zrotation Yrotation Xrotation
						JOINT L_Collar
						{
							OFFSET 0.072225 0.116603 -0.009480
							CHANNELS 3 Zrotation Yrotation Xrotation
							JOINT L_Shoulder
							{
								OFFSET 0.115937 -0.058643 -0.021018
								CHANNELS 3 Zrotation Yrotation Xrotation
								JOINT L_Elbow
								{
									OFFSET 0.021994 -0.254722 -0.024492
									CHANNELS 3 Zrotation Yrotation Xrotation
									End Site #name: L_Wrist
									{
										OFFSET 0.048810 -0.240214 0.103329
									}
								}
							}
						}
					}
					JOINT Spine3_R_Collar
					{
						OFFSET 0.000000 0.000000 0.000000
						CHANNELS 3 Zrotation Yrotation Xrotation
						JOINT R_Collar
						{
							OFFSET -0.073372 0.120704 -0.024611
							CHANNELS 3 Zrotation Yrotation Xrotation
							JOINT R_Shoulder
							{
								OFFSET -0.108089 -0.054969 -0.020504
								CHANNELS 3 Zrotation Yrotation Xrotation
								JOINT R_Elbow
								{
									OFFSET -0.033684 -0.260739 0.009889
									CHANNELS 3 Zrotation Yrotation Xrotation
									End Site #name: R_Wrist
									{
										OFFSET -0.067980 -0.232763 0.118463
									}
								}
							}
						}
					}
				}
			}
		}
	}
}
MOTION
Frames: 15
Frame Time: 0.041667
0.001198 0.939733 0.031847 -1.956066 1.600725 13.557028 0.000000 0.000000 0.000000 0.408871 -5.547117 -23.531990 2.109105 -0.644118 11.090542 -2.353925 -8.238132 -0.333902 0.000000 0.000000 0.000000 2.867555 5.651661 -30.292137 -2.415839 1.549287 14.328802 -0.925431 -8.080453 4.380486 0.000000 0.000000 0.000000 0.951415 -5.924406 46.058260 -3.998535 0.707296 0.663507 7.436420 10.130994 3.772538 0.000000 0.000000 0.000000 -7.009440 3.538769 0.533289 0.000000 0.000000 0.000000 19.570944 -4.646515 1.642992 -19.788276 -0.919885 -10.799785 3.278192 -4.873485 -31.867640 0.000000 0.000000 0.000000 -49.032311 31.701811 -32.472879 -9.292941 0.665803 -20.948966 -37.146004 -20.089070 -20.658219 
0.002472 0.939897 0.029856 -2.012953 1.552275 13.610346 0.000000 0.000000 0.000000 0.452159 -5.588825 -23.740879 2.048495 -0.632194 11.066614 -2.442589 -8.150351 -0.152610 0.000000 0.000000 0.000000 2.877253 5.672950 -30.375390 -2.551666 1.567496 14.062051 -0.792813 -8.021280 4.681521 0.000000 0.000000 0.000000 1.006026 -6.014946 46.465103 -4.401740 0.751864 0.383314 7.516261 10.431290 3.786549 0.000000 0.000000 0.000000 -6.752429 3.406332 0.503989 0.000000 0.000000 0.000000 19.599906 -4.602242 1.715558 -19.779208 -0.986009 -11.036615 3.152058 -4.939227 -31.717037 0.000000 0.000000 0.000000 -51.069442 32.487363 -34.610139 -12.190404 0.081873 -23.663140 -36.824095 -19.288400 -16.245656 
0.003972 0.940095 0.027985 -1.992405 1.406933 13.694254 0.000000 0.000000 0.000000 0.407688 -5.626821 -23.899136 1.951822 -0.608140 10.934719 -2.512810 -7.972446 0.044026 0.000000 0.000000 0.000000 2.795631 5.685547 -30.488897 -2.713470 1.592937 13.780033 -0.615477 -7.904415 5.039686 0.000000 0.000000 0.000000 1.179369 -6.158411 46.802334 -4.924730 0.807178 0.023992 7.574266 10.695036 3.849938 0.000000 0.000000 0.000000 -6.399092 3.230106 0.706535 0.000000 0.000000 0.000000 19.712015 -4.541531 1.812509 -19.904648 -1.034121 -11.219599 3.126068 -4.957930 -31.705864 0.000000 0.000000 0.000000 -53.616033 33.096978 -36.847458 -14.411684 -0.460567 -25.738933 -35.174770 -17.974835 -13.867236 
0.005382 0.940180 0.026576 -1.952636 1.239691 13.780197 0.000000 0.000000 0.000000 0.345475 -5.645558 -23.968129 1.830789 -0.576859 10.723846 -2.552545 -7.773214 0.203586 0.000000 0.000000 0.000000 2.682135 5.697044 -30.625847 -2.835509 1.615920 13.605805 -0.482038 -7.802629 5.289503 0.000000 0.000000 0.000000 1.346817 -6.261906 46.940803 -5.383914 0.852747 -0.294244 7.611037 10.875250 3.909604 0.000000 0.000000 0.000000 -6.041065 3.052102 1.141580 0.000000 0.000000 0.000000 19.996480 -4.489769 1.934309 -20.188611 -1.045312 -11.280234 3.149308 -4.956465 -31.789582 0.000000 0.000000 0.000000 -56.113345 33.430409 -38.741016 -14.977195 -0.608597 -26.574040 -32.953489 -16.630009 -14.261482 
0.006614 0.940249 0.025837 -1.963816 1.144793 13.796654 0.000000 0.000000 0.000000 0.291533 -5.640342 -23.930567 1.778316 -0.561303 10.562511 -2.569573 -7.658932 0.285271 0.000000 0.000000 0.000000 2.616090 5.695331 -30.660673 -2.884919 1.622540 13.501471 -0.412724 -7.751059 5.419055 0.000000 0.000000 0.000000 1.363506 -6.245401 46.910658 -5.546597 0.863558 -0.458521 7.745287 10.970404 3.973926 0.000000 0.000000 0.000000 -5.844791 2.953604 1.568716 0.000000 0.000000 0.000000 20.215103 -4.414874 2.052319 -20.474840 -1.022603 -11.211175 3.176899 -4.962864 -31.909040 0.000000 0.000000 0.000000 -57.256434 33.620837 -39.713385 -14.516786 -0.482417 -26.034210 -30.028414 -14.969079 -17.858578 
0.007837 0.940303 0.025622 -1.985003 1.116165 13.686910 0.000000 0.000000 0.000000 0.182767 -5.622791 -23.800232 1.786943 -0.560287 10.522171 -2.564118 -7.631775 0.290892 0.000000 0.000000 0.000000 2.575346 5.666918 -30.547159 -2.904744 1.626484 13.476439 -0.386011 -7.728914 5.467122 0.000000 0.000000 0.000000 1.232647 -6.122703 46.799773 -5.433245 0.848631 -0.422301 7.904155 10.951632 4.018976 0.000000 0.000000 0.000000 -5.836730 2.951301 1.907232 0.000000 0.000000 0.000000 20.358024 -4.380400 2.110447 -20.647753 -0.977495 -11.060262 3.165643 -4.985234 -31.985988 0.000000 0.000000 0.000000 -56.920835 33.627670 -39.529442 -13.447179 -0.216860 -24.430171 -26.914837 -12.926166 -23.469917 
0.009093 0.940227 0.025706 -2.007177 1.130526 13.519620 0.000000 0.000000 0.000000 0.058664 -5.604430 -23.652496 1.834018 -0.573073 10.623693 -2.529820 -7.667102 0.218613 0.000000 0.000000 0.000000 2.550920 5.629670 -30.381605 -2.925478 1.637873 13.543669 -0.397574 -7.732019 5.440152 0.000000 0.000000 0.000000 1.049309 -5.963133 46.628652 -5.204989 0.824905 -0.283561 7.967905 10.778819 4.019997 0.000000 0.000000 0.000000 -5.911441 2.993614 2.253295 0.000000 0.000000 0.000000 20.484911 -4.405638 2.102148 -20.667023 -0.892399 -10.765283 3.179405 -5.014490 -32.143440 0.000000 0.000000 0.000000 -55.732063 33.289004 -38.277381 -11.689265 0.168864 -22.297203 -24.510760 -10.972797 -29.454431 
0.010344 0.940032 0.025881 -2.047999 1.181080 13.347089 0.000000 0.000000 0.000000 -0.029288 -5.583750 -23.510750 1.854393 -0.582553 10.751603 -2.493024 -7.732490 0.127948 0.000000 0.000000 0.000000 2.538402 5.594254 -30.221061 -2.929261 1.648774 13.666105 -0.437588 -7.750295 5.354087 0.000000 0.000000 0.000000 0.881752 -5.817149 46.400974 -4.942726 0.807579 -0.005015 7.884845 10.477323 3.948329 0.000000 0.000000 0.000000 -6.048773 3.070610 2.530477 0.000000 0.000000 0.000000 20.555865 -4.488484 2.020255 -20.549082 -0.791987 -10.406266 3.367093 -4.895994 -32.302315 0.000000 0.000000 0.000000 -54.120545 32.681534 -36.387581 -9.625481 0.536007 -19.775848 -23.050625 -9.467025 -34.995052 
0.011678 0.939815 0.025998 -2.081444 1.263028 13.203574 0.000000 0.000000 0.000000 -0.109487 -5.566365 -23.385354 1.844891 -0.585133 10.836111 -2.460948 -7.810833 0.038901 0.000000 0.000000 0.000000 2.487533 5.552830 -30.077914 -2.887663 1.644714 13.776375 -0.480299 -7.784964 5.279051 0.000000 0.000000 0.000000 0.727525 -5.692827 46.192272 -4.699159 0.791461 0.268051 7.702292 10.145551 3.929985 0.000000 0.000000 0.000000 -6.302215 3.210185 2.682234 0.000000 0.000000 0.000000 20.563647 -4.617183 1.886541 -20.366688 -0.726332 -10.173603 3.666437 -4.641096 -32.269501 0.000000 0.000000 0.000000 -52.362759 31.966374 -34.354297 -7.371097 0.821741 -16.865551 -22.838849 -9.008624 -39.490756 
0.013043 0.939665 0.025866 -2.134185 1.414270 13.125140 0.000000 0.000000 0.000000 -0.156412 -5.565108 -23.340781 1.852994 -0.590252 10.897637 -2.446442 -7.936614 -0.044839 0.000000 0.000000 0.000000 2.444571 5.514987 -29.961796 -2.830052 1.628407 13.814109 -0.533083 -7.869376 5.229595 0.000000 0.000000 0.000000 0.518487 -5.557791 46.058991 -4.410161 0.762499 0.491089 7.522768 9.920388 3.977723 0.000000 0.000000 0.000000 -6.684365 3.414670 2.658594 0.000000 0.000000 0.000000 20.431973 -4.698424 1.775537 -20.156598 -0.716356 -10.137991 3.975752 -4.353930 -32.139356 0.000000 0.000000 0.000000 -50.323101 31.279304 -32.382916 -5.086983 1.008122 -14.071934 -24.280364 -10.365091 -42.149120 
0.014476 0.939541 0.025162 -2.207753 1.620951 13.051502 0.000000 0.000000 0.000000 -0.177501 -5.581084 -23.375796 1.887883 -0.602122 10.999067 -2.448202 -8.111064 -0.125625 0.000000 0.000000 0.000000 2.379574 5.475782 -29.873931 -2.707984 1.589943 13.821169 -0.599189 -7.980911 5.173949 0.000000 0.000000 0.000000 0.201850 -5.378128 46.062682 -4.041030 0.729257 0.843729 7.436040 9.859830 3.957780 0.000000 0.000000 0.000000 -7.108165 3.630038 2.313034 0.000000 0.000000 0.000000 20.118922 -4.630921 1.759840 -19.922100 -0.770035 -10.312061 4.140782 -4.205641 -32.086956 0.000000 0.000000 0.000000 -48.045192 30.791354 -30.742305 -3.719226 1.070670 -12.447529 -27.238797 -13.456645 -41.886670 
0.016027 0.939358 0.023664 -2.261890 1.825197 12.967630 0.000000 0.000000 0.000000 -0.238484 -5.629172 -23.522517 1.962948 -0.626307 11.212831 -2.446270 -8.285087 -0.211646 0.000000 0.000000 0.000000 2.254311 5.434246 -29.836807 -2.558586 1.542737 13.818976 -0.640877 -8.087520 5.179197 0.000000 0.000000 0.000000 -0.128848 -5.210251 46.228404 -3.701720 0.696920 1.170192 7.473209 9.920075 3.914086 0.000000 0.000000 0.000000 -7.406298 3.771939 1.867557 0.000000 0.000000 0.000000 19.832875 -4.542543 1.779038 -19.769391 -0.850093 -10.580093 4.075120 -4.265060 -32.082230 0.000000 0.000000 0.000000 -46.508238 30.658994 -29.982284 -3.785778 1.120285 -13.059692 -31.050537 -17.054426 -38.074205 
0.017489 0.939167 0.021501 -2.275365 1.915378 12.912915 0.000000 0.000000 0.000000 -0.328587 -5.695761 -23.740747 2.017457 -0.646103 11.422612 -2.454046 -8.336056 -0.223766 0.000000 0.000000 0.000000 2.140043 5.417548 -29.893259 -2.534500 1.531904 13.794272 -0.618186 -8.141402 5.301117 0.000000 0.000000 0.000000 -0.291695 -5.151862 46.506839 -3.621524 0.695064 1.326293 7.515050 10.039318 3.864157 0.000000 0.000000 0.000000 -7.442443 3.781563 1.621427 0.000000 0.000000 0.000000 19.797757 -4.590305 1.752838 -19.771163 -0.917266 -10.817921 3.922353 -4.378926 -32.029164 0.000000 0.000000 0.000000 -46.655492 30.999663 -30.540939 -4.858706 1.199140 -15.800024 -34.593765 -19.622705 -32.087368 
0.018755 0.939066 0.018961 -2.272367 1.837185 12.948864 0.000000 0.000000 0.000000 -0.367057 -5.762171 -24.003734 1.968958 -0.639159 11.479457 -2.483229 -8.201483 -0.114233 0.000000 0.000000 0.000000 2.060312 5.432311 -30.037571 -2.622701 1.545276 13.633413 -0.519004 -8.073147 5.498753 0.000000 0.000000 0.000000 -0.219320 -5.229161 46.818154 -3.837085 0.726108 1.241624 7.501884 10.178946 3.841825 0.000000 0.000000 0.000000 -7.263863 3.685063 1.480346 0.000000 0.000000 0.000000 19.883398 -4.659506 1.732199 -19.897418 -0.969081 -11.009526 3.837108 -4.422620 -31.914526 0.000000 0.000000 0.000000 -48.113774 31.674128 -32.102924 -6.550177 1.173931 -19.481790 -36.413118 -20.375727 -26.682467 
0.020032 0.939118 0.016653 -2.254028 1.603689 13.007055 0.000000 0.000000 0.000000 -0.389537 -5.798851 -24.170120 1.847208 -0.611653 11.386298 -2.499184 -7.956131 0.027837 0.000000 0.000000 0.000000 1.976017 5.448305 -30.152325 -2.745588 1.559756 13.341862 -0.340371 -7.873477 5.768289 0.000000 0.000000 0.000000 -0.005740 -5.371268 47.126923 -4.223438 0.776173 1.031270 7.479361 10.299300 3.821061 0.000000 0.000000 0.000000 -6.977798 3.537658 1.460191 0.000000 0.000000 0.000000 19.980404 -4.675326 1.744920 -20.077252 -0.996266 -11.109880 3.785646 -4.445363 -31.830289 0.000000 0.000000 0.000000 -50.023345 32.368748 -33.942000 -8.292384 1.009189 -22.832956 -35.980670 -19.658280 -23.774367 
